<svg xmlns="http://www.w3.org/2000/svg" width="150.75" height="30" version="1.0"><path d="M18.164 8.32 13.648 18.49h-2.265L6.836 8.32v13.984H4.664V5.414h3.219L12.555 16.1l4.609-10.688h3.281v16.891h-2.281ZM24.874 27.898a5.16 5.16 0 0 1-1.281-.14c-.356-.095-.637-.204-.844-.329l.484-1.813c.188.102.422.196.703.282.282.082.61.125.985.125.332 0 .644-.055.937-.157.301-.093.586-.261.86-.5.281-.242.547-.57.797-.984.25-.418.492-.945.734-1.578l.563-1.438H27.64l-4.891-11.03 1.922-.876 4.687 10.453L33 9.554l2.016.781L30.39 22.93c-.356.969-.73 1.77-1.125 2.406-.387.633-.809 1.145-1.266 1.531-.45.383-.934.649-1.453.797a5.804 5.804 0 0 1-1.672.235Zm0 0"/><path d="M36.445 13.835c0-1.238.176-2.39.531-3.453.352-1.062.868-1.984 1.547-2.766a7.078 7.078 0 0 1 2.453-1.828c.97-.445 2.07-.672 3.313-.672 1.226 0 2.328.231 3.297.688a7.409 7.409 0 0 1 2.484 1.875c.676.781 1.192 1.703 1.547 2.766.363 1.054.547 2.183.547 3.39 0 1.25-.18 2.34-.531 3.266-.356.93-.774 1.73-1.25 2.406l2.14 1.172-1.031 1.922-2.344-1.75c-.617.5-1.324.918-2.125 1.25-.793.332-1.703.5-2.734.5-1.242 0-2.344-.23-3.313-.688a7.501 7.501 0 0 1-2.453-1.89c-.68-.79-1.195-1.719-1.547-2.782a10.656 10.656 0 0 1-.53-3.406Zm9.156 4.781.97-1.765 2.171 1.562a6.73 6.73 0 0 0 .828-2.047c.164-.738.25-1.582.25-2.53 0-.876-.125-1.712-.375-2.516a6.888 6.888 0 0 0-1.094-2.141 5.294 5.294 0 0 0-1.734-1.516c-.68-.375-1.453-.562-2.328-.562-.867 0-1.64.172-2.328.515a4.91 4.91 0 0 0-1.719 1.407c-.469.593-.828 1.304-1.078 2.125a9.215 9.215 0 0 0-.375 2.687c0 .867.117 1.711.36 2.531a6.667 6.667 0 0 0 1.062 2.172 5.51 5.51 0 0 0 1.718 1.516c.676.375 1.446.563 2.313.563.676 0 1.281-.079 1.813-.235a5.81 5.81 0 0 0 1.374-.61ZM66.768 22.429c-.773 0-1.386-.148-1.844-.453-.449-.313-.761-.758-.937-1.344a7.013 7.013 0 0 1-1.938 1.422 5.325 5.325 0 0 1-2.406.547c-.543 0-1.07-.09-1.578-.266a3.573 3.573 0 0 1-1.36-.797c-.386-.375-.698-.859-.937-1.453-.23-.594-.343-1.316-.343-2.172V9.757h2.171v7.86c0 .992.204 1.746.61 2.265.414.524 1.035.781 1.86.781.663 0 1.304-.129 1.921-.39a5.8 5.8 0 0 0 1.64-1.078V9.757H65.8v9.281c0 .356.04.641.125.86.083.218.188.39.313.515.125.118.273.2.453.25.176.055.352.078.531.078ZM71.504 16.913c.145 1.18.551 2.102 1.22 2.766.675.656 1.57.984 2.687.984.718 0 1.367-.07 1.953-.218.582-.157 1.14-.36 1.672-.61l.5 1.86c-.574.28-1.227.5-1.953.656-.73.164-1.543.25-2.438.25-.906 0-1.726-.152-2.453-.453a5.17 5.17 0 0 1-1.844-1.282c-.5-.55-.886-1.234-1.156-2.046-.273-.813-.406-1.743-.406-2.797 0-.926.133-1.79.406-2.594a6.18 6.18 0 0 1 1.156-2.094A5.208 5.208 0 0 1 72.63 9.96c.696-.332 1.473-.5 2.329-.5.894 0 1.68.156 2.359.469a4.697 4.697 0 0 1 1.688 1.25 5.534 5.534 0 0 1 1.015 1.86c.227.71.344 1.452.344 2.234 0 .562-.027 1.11-.078 1.64Zm3.407-5.562c-.961 0-1.742.324-2.344.969-.605.636-.969 1.586-1.094 2.843h6.875c0-1.226-.308-2.172-.922-2.828-.605-.656-1.445-.984-2.515-.984ZM83.089 19.476c.414.375.941.68 1.578.906a6.23 6.23 0 0 0 2.047.328c.894 0 1.57-.144 2.03-.437.458-.301.688-.688.688-1.157 0-.238-.047-.46-.14-.671-.086-.207-.246-.407-.485-.594a4.211 4.211 0 0 0-.953-.578 18.122 18.122 0 0 0-1.562-.625c-1.188-.395-2.074-.867-2.657-1.422-.574-.563-.859-1.332-.859-2.313 0-.476.102-.925.313-1.343a3.29 3.29 0 0 1 .937-1.11c.414-.312.914-.554 1.5-.734.594-.176 1.27-.266 2.031-.266.813 0 1.524.09 2.141.266a8.98 8.98 0 0 1 1.688.625l-.594 1.797a6.225 6.225 0 0 0-1.5-.625 6.476 6.476 0 0 0-1.844-.25c-.836 0-1.469.172-1.906.515-.43.336-.64.7-.64 1.094 0 .2.034.383.108.547.07.156.204.309.391.453.195.149.453.293.766.438.32.148.726.296 1.218.453.782.273 1.446.547 2 .828.551.281.993.594 1.329.937.332.336.57.7.718 1.094.145.399.22.836.22 1.313 0 .562-.122 1.074-.36 1.53-.242.45-.578.829-1.016 1.141a4.85 4.85 0 0 1-1.578.72 7.519 7.519 0 0 1-2.063.265c-.968 0-1.835-.121-2.593-.36-.75-.25-1.375-.566-1.875-.953ZM95.542 6.257h1.672v3.953h3.469v1.875h-3.47v6.063c0 .468.052.867.157 1.187.102.324.242.586.422.781.176.188.39.329.64.422.25.086.508.125.782.125.394 0 .77-.062 1.125-.187.351-.133.691-.29 1.015-.469l.61 1.734c-.324.2-.762.391-1.313.579a5.175 5.175 0 0 1-1.703.28c-1.21 0-2.168-.394-2.875-1.187-.7-.789-1.047-1.937-1.047-3.437v-5.89h-2.172V10.21h2.235ZM106.312 22.304h-2.171V9.757h2.171ZM105.22 7.601a1.49 1.49 0 0 1-1.078-.438 1.49 1.49 0 0 1-.438-1.078c0-.469.133-.836.406-1.11.27-.28.64-.421 1.11-.421.414 0 .77.152 1.062.453.3.305.453.664.453 1.078 0 .469-.136.84-.406 1.11-.273.273-.64.406-1.11.406ZM119.488 16.023c0-.625-.105-1.219-.313-1.782-.199-.562-.48-1.05-.843-1.468a4.149 4.149 0 0 0-1.266-1 3.498 3.498 0 0 0-1.61-.375c-1.273 0-2.261.418-2.968 1.25-.71.836-1.063 1.945-1.063 3.328 0 .625.098 1.226.297 1.797.207.574.489 1.074.844 1.5.363.43.79.765 1.281 1.015.489.25 1.024.375 1.61.375.625 0 1.187-.109 1.687-.328.5-.226.922-.547 1.266-.953.344-.414.61-.906.797-1.469.187-.562.281-1.191.281-1.89Zm-10.281 0c0-1.008.16-1.922.484-2.735.32-.812.758-1.5 1.313-2.062a5.653 5.653 0 0 1 1.968-1.297 6.54 6.54 0 0 1 2.485-.469c.863 0 1.676.156 2.437.469.77.305 1.438.734 2 1.297a6.08 6.08 0 0 1 1.328 2.047c.32.804.485 1.703.485 2.703 0 1-.156 1.906-.469 2.719a6.15 6.15 0 0 1-1.313 2.093 5.993 5.993 0 0 1-2 1.344 6.446 6.446 0 0 1-2.468.469 6.368 6.368 0 0 1-2.5-.485 6.007 6.007 0 0 1-1.985-1.343 6.244 6.244 0 0 1-1.296-2.078c-.313-.813-.47-1.704-.47-2.672ZM126.704 11.85a5.952 5.952 0 0 1 1.719-1.702c.707-.457 1.54-.688 2.5-.688 1.414 0 2.473.43 3.172 1.281.707.856 1.062 1.981 1.062 3.375v8.188h-2.172v-7.938c0-.914-.214-1.644-.64-2.187-.418-.54-1.012-.813-1.781-.813-.368 0-.727.07-1.078.204-.356.136-.7.328-1.032.578-.336.242-.64.523-.922.843a8 8 0 0 0-.75 1.016v8.297h-2.171V9.757h2.093ZM138.73 19.476c.414.375.941.68 1.578.906a6.23 6.23 0 0 0 2.047.328c.894 0 1.57-.144 2.03-.437.458-.301.688-.688.688-1.157 0-.238-.047-.46-.14-.671-.086-.207-.246-.407-.485-.594a4.211 4.211 0 0 0-.953-.578 18.122 18.122 0 0 0-1.562-.625c-1.188-.395-2.074-.867-2.656-1.422-.575-.563-.86-1.332-.86-2.313 0-.476.102-.925.313-1.343a3.29 3.29 0 0 1 .937-1.11c.414-.312.914-.554 1.5-.734.594-.176 1.27-.266 2.031-.266.813 0 1.524.09 2.141.266a8.98 8.98 0 0 1 1.688.625l-.594 1.797a6.225 6.225 0 0 0-1.5-.625 6.476 6.476 0 0 0-1.844-.25c-.836 0-1.469.172-1.906.515-.43.336-.64.7-.64 1.094 0 .2.034.383.108.547.07.156.204.309.391.453.195.149.453.293.766.438.32.148.726.296 1.219.453.78.273 1.445.547 2 .828.55.281.992.594 1.328.937.332.336.57.7.718 1.094.145.399.22.836.22 1.313 0 .562-.122 1.074-.36 1.53-.242.45-.578.829-1.016 1.141a4.85 4.85 0 0 1-1.578.72 7.519 7.519 0 0 1-2.063.265c-.968 0-1.835-.121-2.593-.36-.75-.25-1.375-.566-1.875-.953Zm0 0" fill="#5061FC"/></svg>