<svg xmlns="http://www.w3.org/2000/svg" width="112.5" viewBox="0 0 112.5 112.5" height="112.5" version="1.0"><path fill="#FC5050" d="M 78.089844 45.007812 C 83.332031 47.632812 88.25 50.914062 92.835938 55.503906 C 97.421875 60.09375 90.539062 66.980469 85.953125 62.390625 C 81.367188 57.800781 76.125 54.519531 70.550781 52.554688 Z M 25.003906 62.390625 C 20.417969 66.980469 13.535156 60.09375 17.796875 55.503906 C 31.882812 41.402344 51.875 36.8125 69.902344 42.058594 L 61.378906 50.253906 C 48.59375 48.289062 34.832031 52.222656 25.003906 62.390625 Z M 63.019531 59.769531 C 69.242188 61.074219 74.808594 64.355469 79.40625 68.957031 C 83.988281 73.546875 77.105469 80.433594 72.523438 75.835938 C 67.277344 70.921875 60.722656 68.296875 54.171875 68.621094 Z M 34.507812 77.152344 C 30.902344 76.828125 27.957031 72.230469 31.226562 68.957031 C 37.128906 63.050781 44.992188 59.769531 52.53125 59.109375 Z M 55.476562 82.722656 C 68.585938 82.722656 68.585938 103.066406 55.476562 103.066406 C 42.046875 103.066406 42.046875 82.722656 55.476562 82.722656 Z M 91.855469 30.90625 C 97.097656 33.855469 101.683594 37.792969 106.277344 42.058594 C 110.863281 46.648438 103.65625 53.539062 99.394531 48.949219 C 94.800781 44.683594 89.890625 41.078125 84.648438 38.117188 Z M 105.285156 7.941406 C 108.242188 4.992188 112.5 9.257812 109.554688 12.203125 L 17.136719 104.707031 C 14.191406 107.65625 9.929688 103.066406 12.875 100.441406 Z M 11.570312 48.949219 C 6.976562 53.539062 0.09375 46.648438 4.6875 42.058594 C 25.984375 20.410156 58.097656 15.488281 84.648438 27.300781 L 77.105469 34.511719 C 54.820312 26.316406 29.261719 31.230469 11.570312 48.949219"/></svg>