<svg xmlns="http://www.w3.org/2000/svg" width="112.5" height="112.5" version="1.0"><path fill="#FC5050" d="M78.09 45.008c5.242 2.625 10.16 5.906 14.746 10.496 4.586 4.59-2.297 11.476-6.883 6.887-4.586-4.59-9.828-7.871-15.402-9.836ZM25.004 62.39c-4.586 4.59-11.469-2.297-7.207-6.887 14.086-14.102 34.078-18.691 52.105-13.445l-8.523 8.195c-12.785-1.965-26.547 1.969-36.375 12.137ZM63.02 59.77c6.222 1.304 11.789 4.585 16.386 9.187 4.582 4.59-2.3 11.477-6.883 6.879-5.246-4.914-11.8-7.54-18.351-7.215ZM34.508 77.152c-3.606-.324-6.551-4.922-3.281-8.195 5.902-5.906 13.765-9.187 21.304-9.848Zm20.969 5.57c13.109 0 13.109 20.344 0 20.344-13.43 0-13.43-20.343 0-20.343Zm36.378-51.816c5.243 2.95 9.829 6.887 14.422 11.153 4.586 4.59-2.62 11.48-6.882 6.89-4.594-4.265-9.504-7.87-14.747-10.832Zm13.43-22.965c2.957-2.949 7.215 1.317 4.27 4.262l-92.418 92.504c-2.946 2.95-7.207-1.64-4.262-4.266ZM11.57 48.95c-4.593 4.59-11.476-2.3-6.883-6.89C25.985 20.41 58.097 15.489 84.648 27.3l-7.543 7.21C54.82 26.317 29.262 31.232 11.57 48.95"/></svg>